{"title":"Kohram 1999 DvDrip ~ Action | Drama | Thriller ~ [RdY]","uid":6685371,"size":786616732,"categoryP":"video","categoryS":"movies","magnet":"?xt=urn:btih:4e2b080a4d6e189ba7b2f38fa8b0592ee02dc587&amp;dn=Kohram+1999+DvDrip+%7E+Action+%7C+Drama+%7C+Thriller+%7E+%5BRdY%5D&amp;tr=udp%3A%2F%2Ftracker.openbittorrent.com%3A80&amp;tr=udp%3A%2F%2Fopen.demonii.com%3A1337&amp;tr=udp%3A%2F%2Ftracker.coppersurfer.tk%3A6969&amp;tr=udp%3A%2F%2Fexodus.desync.com%3A6969","seeders":0,"leechers":3,"uploader":"ilyas2000pk","files":-1,"time":1316380877,"description":"Color\nC\n\nRelease Date\nAugust 13, 1999\n\nLanguage\nHindi\n\nGenre\nAction  /  Crime  /  Thriller  /  Drama\n\nProducer\nMehul Kumar\n\nDirector\nMehul Kumar\n\nStar Cast\nAmitabh Bachchan...... Col. Balbir Singh Sodi, aka Devraj Hathoda/Dada Bhai\nNana Patekar...... Maj. Ajit Arya\nTabu...... Insp. Kiran Patekar\nDanny Denzongpa...... Minister Virbhadra Singh\nJaya Prada...... Amrita Sodi\nMukul Dev...... Monty\nMukesh Rishi...... Ghafoor Changezi\nJackie Shroff...... Maj. Rathod\nAyesha Jhulka...... Sweety\nKabir Bedi...... Brig. Bedi\nAvtar Gill...... Police Commissioner\n\nCassettes and CD's on\nPolygram\n\nSound\nJagmohan Anand\n\nMedia Relations\nPicture-N-Kraft\n\n\nGeneral\nComplete name :Kohram 1999 DvDrip ~ Action | Drama | Thriller ~ [RdY]\nFormat : AVI\nFormat/Info : Audio Video Interleave\nFile size : 750 MiB\nDuration : 2h 24mn\nOverall bit rate : 724 Kbps\n\nVideo\nID : 0\nFormat : MPEG-4 Visual\nFormat profile : Advanced Simple@L5\nFormat settings, BVOP : 2\nFormat settings, QPel : No\nFormat settings, GMC : No warppoints\nFormat settings, Matrix : Default (H.263)\nCodec ID : XVID\nCodec ID/Hint : XviD\nDuration : 2h 24mn\nBit rate : 600 Kbps\nWidth : 640 pixels\nHeight : 342 pixels\nDisplay aspect ratio : 1.871\nFrame rate : 24.000 fps\nColor space : YUV\nChroma subsampling : 4.2.0\nBit depth : 8 bits\nScan type : Progressive\nCompression mode : Lossy\nBits/(Pixel*Frame) : 0.114\nStream size : 622 MiB (83%)\nWriting library : XviD 63\n\nAudio\nID : 1\nFormat : MPEG Audio\nFormat version : Version 1\nFormat profile : Layer 3\nCodec ID : 55\nCodec ID/Hint : MP3\nDuration : 2h 24mn\nBit rate mode : Constant\nBit rate : 112 Kbps\nChannel(s) : 2 channels\nSampling rate : 44.1 KHz\nCompression mode : Lossy\nStream size : 116 MiB (15%)\nAlignment : Split accross interleaves\nInterleave, duration : 26 ms (0.63 video frame)","torrent":{"xt":"urn:btih:4e2b080a4d6e189ba7b2f38fa8b0592ee02dc587","amp;dn":"Kohram+1999+DvDrip+%7E+Action+%7C+Drama+%7C+Thriller+%7E+%5BRdY%5D","amp;tr":["udp%3A%2F%2Ftracker.openbittorrent.com%3A80","udp%3A%2F%2Fopen.demonii.com%3A1337","udp%3A%2F%2Ftracker.coppersurfer.tk%3A6969","udp%3A%2F%2Fexodus.desync.com%3A6969"],"infoHash":"4e2b080a4d6e189ba7b2f38fa8b0592ee02dc587","infoHashBuffer":{"type":"Buffer","data":[78,43,8,10,77,110,24,155,167,178,243,143,168,176,89,46,224,45,197,135]},"announce":[],"urlList":[]}}